name C:\Users\u0101727\Documents\MyRepositories\upper-imu-dc\Results\main_tracking\Case_14\ABD01_angularVelocities_bodyFrame.mot
datacolumns 4
datarows 105
range 8.06000000 9.10000000
endheader 
time	radius_imu_x	radius_imu_y	radius_imu_z	
          8.06000000	          1.29532596	          0.95388025	          0.53858948	
          8.07000000	          1.29285651	          0.83269837	          0.50709016	
          8.08000000	          1.28798036	          0.72418745	          0.47188619	
          8.09000000	          1.28049522	          0.63367879	          0.43369933	
          8.10000000	          1.27064498	          0.56267813	          0.39364741	
          8.11000000	          1.25905591	          0.50813801	          0.35304598	
          8.12000000	          1.24671110	          0.46212943	          0.31324065	
          8.13000000	          1.23496361	          0.41215085	          0.27550178	
          8.14000000	          1.22549512	          0.34250839	          0.24094660	
          8.15000000	          1.22012674	          0.23693515	          0.21044252	
          8.16000000	          1.22048366	          0.08202097	          0.18449176	
          8.17000000	          1.22760172	         -0.12929532	          0.16313136	
          8.18000000	          1.24156576	         -0.39475495	          0.14588023	
          8.19000000	          1.26124504	         -0.70068362	          0.13175233	
          8.20000000	          1.28418990	         -1.02119224	          0.11935232	
          8.21000000	          1.30676693	         -1.31937665	          0.10707048	
          8.22000000	          1.32460395	         -1.55136572	          0.09337686	
          8.23000000	          1.33336563	         -1.67367142	          0.07717806	
          8.24000000	          1.32976905	         -1.65316635	          0.05815974	
          8.25000000	          1.31256563	         -1.47716468	          0.03700171	
          8.26000000	          1.28306771	         -1.15938121	          0.01534331	
          8.27000000	          1.24492484	         -0.73841981	         -0.00453891	
          8.28000000	          1.20328700	         -0.26956416	         -0.02020961	
          8.29000000	          1.16381010	          0.18586205	         -0.02950207	
          8.30000000	          1.13184606	          0.56976792	         -0.03079688	
          8.31000000	          1.11186450	          0.83402909	         -0.02319745	
          8.32000000	          1.10703060	          0.94516222	         -0.00666734	
          8.33000000	          1.11891996	          0.88751613	          0.01788158	
          8.34000000	          1.14739528	          0.66506267	          0.04860967	
          8.35000000	          1.19062517	          0.30162960	          0.08289848	
          8.36000000	          1.24518121	         -0.16051594	          0.11758316	
          8.37000000	          1.30620063	         -0.66395139	          0.14922745	
          8.38000000	          1.36771638	         -1.14187853	          0.17446286	
          8.39000000	          1.42331416	         -1.52706935	          0.19044434	
          8.40000000	          1.46718497	         -1.76366520	          0.19541236	
          8.41000000	          1.49538388	         -1.81935492	          0.18921214	
          8.42000000	          1.50680439	         -1.69317249	          0.17350411	
          8.43000000	          1.50335439	         -1.41467667	          0.15146262	
          8.44000000	          1.48923407	         -1.03477734	          0.12702823	
          8.45000000	          1.46969370	         -0.61273550	          0.10401440	
          8.46000000	          1.44976339	         -0.20392299	          0.08537628	
          8.47000000	          1.43329433	          0.14924866	          0.07280807	
          8.48000000	          1.42248456	          0.42213511	          0.06669579	
          8.49000000	          1.41790717	          0.60809170	          0.06635061	
          8.50000000	          1.41889657	          0.71499068	          0.07038671	
          8.51000000	          1.42406935	          0.75977754	          0.07710466	
          8.52000000	          1.43179259	          0.76278369	          0.08479542	
          8.53000000	          1.44052832	          0.74290737	          0.09194497	
          8.54000000	          1.44904767	          0.71418711	          0.09736128	
          8.55000000	          1.45654807	          0.68400208	          0.10024780	
          8.56000000	          1.46267948	          0.65316997	          0.10022199	
          8.57000000	          1.46745852	          0.61793163	          0.09727069	
          8.58000000	          1.47109693	          0.57312180	          0.09165388	
          8.59000000	          1.47380529	          0.51532999	          0.08378628	
          8.60000000	          1.47564220	          0.44492494	          0.07412853	
          8.61000000	          1.47644473	          0.36651575	          0.06310715	
          8.62000000	          1.47583077	          0.28830416	          0.05107151	
          8.63000000	          1.47324599	          0.22111737	          0.03829727	
          8.64000000	          1.46805617	          0.17735768	          0.02504511	
          8.65000000	          1.45971534	          0.16929736	          0.01166591	
          8.66000000	          1.44801181	          0.20612088	         -0.00128682	
          8.67000000	          1.43330370	          0.29024379	         -0.01300539	
          8.68000000	          1.41658173	          0.41486006	         -0.02250563	
          8.69000000	          1.39925871	          0.56462653	         -0.02883939	
          8.70000000	          1.38277472	          0.71944127	         -0.03134987	
          8.71000000	          1.36823015	          0.85943749	         -0.02984430	
          8.72000000	          1.35620084	          0.96918161	         -0.02461670	
          8.73000000	          1.34674872	          1.04002397	         -0.01633918	
          8.74000000	          1.33954481	          1.07054731	         -0.00589376	
          8.75000000	          1.33400907	          1.06556960	          0.00578484	
          8.76000000	          1.32942089	          1.03411960	          0.01782208	
          8.77000000	          1.32501114	          0.98664247	          0.02947000	
          8.78000000	          1.32006339	          0.93192364	          0.04013480	
          8.79000000	          1.31402484	          0.87465729	          0.04937817	
          8.80000000	          1.30659515	          0.81469525	          0.05691337	
          8.81000000	          1.29775964	          0.74844104	          0.06261400	
          8.82000000	          1.28776168	          0.67177688	          0.06653243	
          8.83000000	          1.27703827	          0.58306904	          0.06890190	
          8.84000000	          1.26614892	          0.48479694	          0.07009628	
          8.85000000	          1.25570978	          0.38318772	          0.07054703	
          8.86000000	          1.24631355	          0.28635562	          0.07064084	
          8.87000000	          1.23842702	          0.20201255	          0.07063336	
          8.88000000	          1.23229114	          0.13563161	          0.07059984	
          8.89000000	          1.22786546	          0.08941633	          0.07041584	
          8.90000000	          1.22484986	          0.06205288	          0.06976335	
          8.91000000	          1.22277729	          0.04919293	          0.06817230	
          8.92000000	          1.22113847	          0.04463509	          0.06510385	
          8.93000000	          1.21949297	          0.04203589	          0.06006220	
          8.94000000	          1.21753059	          0.03672425	          0.05270459	
          8.95000000	          1.21507114	          0.02700644	          0.04291730	
          8.96000000	          1.21201775	          0.01444225	          0.03083956	
          8.97000000	          1.20829543	          0.00296237	          0.01683487	
          8.98000000	          1.20380711	         -0.00281117	          0.00142297	
          8.99000000	          1.19841988	          0.00067748	         -0.01480275	
          9.00000000	          1.19197423	          0.01480412	         -0.03124231	
          9.01000000	          1.18430774	          0.03861378	         -0.04732224	
          9.02000000	          1.17529258	          0.06944173	         -0.06250154	
          9.03000000	          1.16487740	          0.10387603	         -0.07627575	
          9.04000000	          1.15310776	          0.13871921	         -0.08820117	
          9.05000000	          1.14009820	          0.17181992	         -0.09794248	
          9.06000000	          1.12595029	          0.20278303	         -0.10532856	
          9.07000000	          1.11063973	          0.23353307	         -0.11039149	
          9.08000000	          1.09391816	          0.26853301	         -0.11336474	
          9.09000000	          1.07528325	          0.31434500	         -0.11463125	
          9.10000000	          1.05405102	          0.37838708	         -0.11463125	
